<svg width="41" height="29" viewBox="0 0 41 29" fill="none" xmlns="http://www.w3.org/2000/svg">
<path d="M39.825 5.32312C39.6143 5.06536 39.3488 4.85775 39.0478 4.71538C38.7468 4.573 38.4179 4.49943 38.085 4.5H9.55219L8.9775 1.23938C8.91622 0.892058 8.73452 0.577439 8.46432 0.350782C8.19411 0.124125 7.85268 -7.41014e-05 7.5 3.31689e-08H1.5C1.10218 3.31689e-08 0.720644 0.158036 0.43934 0.43934C0.158035 0.720645 0 1.10218 0 1.5C0 1.89782 0.158035 2.27936 0.43934 2.56066C0.720644 2.84196 1.10218 3 1.5 3H6.24188L10.5225 27.2606C10.5838 27.6079 10.7655 27.9226 11.0357 28.1492C11.3059 28.3759 11.6473 28.5001 12 28.5H36C36.3978 28.5 36.7794 28.342 37.0607 28.0607C37.342 27.7794 37.5 27.3978 37.5 27C37.5 26.6022 37.342 26.2206 37.0607 25.9393C36.7794 25.658 36.3978 25.5 36 25.5H13.2581L12.7294 22.5H35.385C35.9052 22.4993 36.4092 22.319 36.8117 21.9894C37.2142 21.6599 37.4904 21.2014 37.5938 20.6916L40.2937 7.19156C40.3588 6.86485 40.3505 6.52776 40.2694 6.20464C40.1884 5.88152 40.0366 5.58044 39.825 5.32312Z" fill="white"/>
</svg>
