<svg width="212" height="49" viewBox="0 0 212 49" fill="none" xmlns="http://www.w3.org/2000/svg">
<g clip-path="url(#clip0_351_900)">
<path fill-rule="evenodd" clip-rule="evenodd" d="M93.6082 9.028V10.7107C93.6082 13.5515 91.303 15.8679 88.4892 15.8679H77.0065C74.1926 15.8679 71.8874 13.5515 71.8874 10.7107V5.17098C71.8874 2.33011 74.1926 0.0027771 77.0065 0.0027771H88.4892C91.303 0.0027771 93.6082 2.33011 93.6082 5.17098V6.63512H91.2706V5.17098C91.2706 3.63035 90.0152 2.36288 88.4892 2.36288H77.0065C75.4805 2.36288 74.2359 3.63035 74.2359 5.17098V10.7107C74.2359 12.2404 75.4805 13.5078 77.0065 13.5078H88.4892C90.0152 13.5078 91.2706 12.2404 91.2706 10.7107V9.028H93.6082ZM140.675 9.028V10.7107C140.675 13.5515 138.37 15.8679 135.556 15.8679H124.074C121.26 15.8679 118.965 13.5515 118.965 10.7107V5.17098C118.965 2.33011 121.26 0.0027771 124.074 0.0027771H135.556C138.37 0.0027771 140.675 2.33011 140.675 5.17098V6.63512H138.338V5.17098C138.338 3.63035 137.082 2.36288 135.556 2.36288H124.074C122.548 2.36288 121.303 3.63035 121.303 5.17098V10.7107C121.303 12.2404 122.548 13.5078 124.074 13.5078H135.556C137.082 13.5078 138.338 12.2404 138.338 10.7107V9.028H140.675ZM117.136 9.028V10.7107C117.136 13.5515 114.842 15.8679 112.017 15.8679H100.545C97.7316 15.8679 95.4264 13.5515 95.4264 10.7107V5.17098C95.4264 2.33011 97.7316 0.0027771 100.545 0.0027771H112.017C114.842 0.0027771 117.136 2.33011 117.136 5.17098V6.63512H114.799V5.17098C114.799 3.63035 113.543 2.36288 112.017 2.36288H100.545C99.0195 2.36288 97.7641 3.63035 97.7641 5.17098V10.7107C97.7641 12.2404 99.0195 13.5078 100.545 13.5078H112.017C113.543 13.5078 114.799 12.2404 114.799 10.7107V9.028H117.136ZM142.494 10.6779C142.494 9.69451 143.273 8.90781 144.247 8.90781C145.21 8.90781 146 9.69451 146 10.6779V12.4261C146 17.7801 141.346 21.2219 136.206 21.2219H131.184L131.26 21.353C131.747 22.1943 131.455 23.2761 130.621 23.7677C129.788 24.2485 128.716 23.9644 128.229 23.1231L127.45 21.7573C127.353 21.5934 127.288 21.4076 127.245 21.2219H84.7446C84.7121 21.4076 84.6472 21.5934 84.5498 21.7573L83.7706 23.1231C83.2836 23.9644 82.2121 24.2485 81.3788 23.7677C80.5455 23.2761 80.2532 22.1943 80.7403 21.353L80.8052 21.2219H75.7944C70.6537 21.2219 66 17.7801 66 12.4261V10.6779C66 9.69451 66.79 8.90781 67.7532 8.90781C68.7273 8.90781 69.5065 9.69451 69.5065 10.6779V12.4261C69.5065 15.7805 72.5801 17.6817 75.7944 17.6817H136.206C139.42 17.6817 142.494 15.7805 142.494 12.4261V10.6779Z" fill="#344C95"/>
</g>
<path d="M7.744 44.256C6.74667 44.256 5.81067 44.08 4.936 43.728C4.06133 43.376 3.29067 42.888 2.624 42.264C1.95733 41.6347 1.43733 40.9067 1.064 40.08C0.690667 39.2533 0.504 38.3653 0.504 37.416C0.504 36.4613 0.690667 35.5707 1.064 34.744C1.44267 33.912 1.96267 33.184 2.624 32.56C3.29067 31.9307 4.05867 31.44 4.928 31.088C5.80267 30.736 6.736 30.56 7.728 30.56C8.53867 30.56 9.30933 30.6747 10.04 30.904C10.776 31.1333 11.4053 31.4347 11.928 31.808L10.808 34.008C10.4507 33.7253 10.016 33.504 9.504 33.344C8.992 33.184 8.456 33.104 7.896 33.104C7.24 33.104 6.632 33.2133 6.072 33.432C5.51733 33.6507 5.032 33.9547 4.616 34.344C4.20533 34.7333 3.88533 35.1893 3.656 35.712C3.42667 36.2347 3.312 36.8 3.312 37.408C3.312 38.016 3.42667 38.5813 3.656 39.104C3.88533 39.6267 4.20533 40.0827 4.616 40.472C5.032 40.8613 5.51733 41.1653 6.072 41.384C6.632 41.6027 7.24 41.712 7.896 41.712C8.456 41.712 8.992 41.632 9.504 41.472C10.016 41.312 10.4507 41.0907 10.808 40.808L11.928 43.008C11.4267 43.3707 10.8107 43.6693 10.08 43.904C9.34933 44.1387 8.57067 44.256 7.744 44.256ZM17.6984 44.256C16.205 44.256 15.1277 43.96 14.4664 43.368C13.805 42.776 13.4744 41.808 13.4744 40.464V35.808H15.9304V39.888C15.9304 40.752 16.0637 41.3627 16.3304 41.72C16.6024 42.0773 17.0584 42.256 17.6984 42.256C18.349 42.256 18.805 42.0773 19.0664 41.72C19.333 41.3627 19.4664 40.752 19.4664 39.888V35.808H21.9224V40.464C21.9224 41.808 21.5917 42.776 20.9304 43.368C20.2744 43.96 19.197 44.256 17.6984 44.256ZM26.8774 44.256C26.184 44.256 25.5627 44.1467 25.0134 43.928C24.4694 43.7093 24.016 43.3893 23.6534 42.968L24.6854 41.32C25.0267 41.6827 25.384 41.96 25.7574 42.152C26.1307 42.344 26.504 42.44 26.8774 42.44C27.0854 42.44 27.264 42.4053 27.4134 42.336C27.568 42.2667 27.688 42.168 27.7734 42.04C27.864 41.9067 27.9094 41.7467 27.9094 41.56C27.9094 41.3467 27.848 41.1787 27.7254 41.056C27.608 40.9333 27.4267 40.8213 27.1814 40.72C26.936 40.6133 26.6187 40.48 26.2294 40.32C25.8987 40.1813 25.5814 40.024 25.2774 39.848C24.9734 39.672 24.7254 39.448 24.5334 39.176C24.3467 38.904 24.2534 38.56 24.2534 38.144C24.2534 37.6373 24.3947 37.192 24.6774 36.808C24.96 36.4187 25.3494 36.1147 25.8454 35.896C26.3467 35.6773 26.9227 35.568 27.5734 35.568C27.9787 35.568 28.4027 35.6293 28.8454 35.752C29.2934 35.8747 29.7707 36.0613 30.2774 36.312L29.4374 37.888C28.7494 37.4453 28.1334 37.224 27.5894 37.224C27.2854 37.224 27.0427 37.2907 26.8614 37.424C26.68 37.5573 26.5894 37.7253 26.5894 37.928C26.5894 38.12 26.6827 38.288 26.8694 38.432C27.0614 38.5707 27.2934 38.696 27.5654 38.808C27.8427 38.9147 28.1067 39.0133 28.3574 39.104C28.768 39.2533 29.1307 39.4187 29.4454 39.6C29.7654 39.7813 30.016 40.0187 30.1974 40.312C30.3787 40.6 30.4694 40.9867 30.4694 41.472C30.4694 42.064 30.3254 42.568 30.0374 42.984C29.7547 43.3947 29.344 43.7093 28.8054 43.928C28.272 44.1467 27.6294 44.256 26.8774 44.256ZM35.4283 44.256C34.6123 44.256 33.9776 43.9973 33.5243 43.48C33.0709 42.9573 32.8443 42.2293 32.8443 41.296V37.672H31.7483V35.808H32.8443V32.736H35.3003V35.808H37.1003V37.672H35.3003V41.12C35.3003 41.4293 35.3616 41.664 35.4843 41.824C35.6123 41.984 35.7909 42.064 36.0203 42.064C36.2763 42.064 36.5216 41.9787 36.7563 41.808L37.3723 43.776C37.0949 43.9253 36.7829 44.0427 36.4363 44.128C36.0949 44.2133 35.7589 44.256 35.4283 44.256ZM43.5749 44.256C42.6735 44.256 41.8602 44.072 41.1349 43.704C40.4095 43.3307 39.8335 42.8187 39.4069 42.168C38.9802 41.512 38.7669 40.7573 38.7669 39.904C38.7669 39.0507 38.9775 38.2987 39.3989 37.648C39.8255 36.992 40.4015 36.48 41.1269 36.112C41.8575 35.7387 42.6735 35.552 43.5749 35.552C44.4815 35.552 45.2975 35.7387 46.0229 36.112C46.7482 36.48 47.3215 36.992 47.7429 37.648C48.1695 38.2987 48.3829 39.0507 48.3829 39.904C48.3829 40.7573 48.1695 41.512 47.7429 42.168C47.3215 42.8187 46.7482 43.3307 46.0229 43.704C45.2975 44.072 44.4815 44.256 43.5749 44.256ZM43.5829 42.16C43.9989 42.16 44.3775 42.064 44.7189 41.872C45.0602 41.68 45.3295 41.416 45.5269 41.08C45.7242 40.7387 45.8229 40.3467 45.8229 39.904C45.8229 39.4613 45.7242 39.072 45.5269 38.736C45.3295 38.3947 45.0602 38.128 44.7189 37.936C44.3775 37.744 43.9989 37.648 43.5829 37.648C43.1615 37.648 42.7802 37.744 42.4389 37.936C42.1029 38.128 41.8362 38.3947 41.6389 38.736C41.4415 39.072 41.3429 39.4613 41.3429 39.904C41.3429 40.3467 41.4415 40.7387 41.6389 41.08C41.8362 41.416 42.1029 41.68 42.4389 41.872C42.7802 42.064 43.1615 42.16 43.5829 42.16ZM50.5261 44V35.808H52.9821V36.72C53.3875 36.3147 53.7901 36.0187 54.1901 35.832C54.5901 35.6453 55.0221 35.552 55.4861 35.552C56.1155 35.552 56.6835 35.6933 57.1901 35.976C57.6968 36.2587 58.0595 36.6373 58.2781 37.112C58.6781 36.5947 59.1075 36.2053 59.5661 35.944C60.0248 35.6827 60.5501 35.552 61.1421 35.552C61.7341 35.552 62.2595 35.6747 62.7181 35.92C63.1768 36.1653 63.5368 36.5147 63.7981 36.968C64.0648 37.416 64.1981 37.9467 64.1981 38.56V44H61.7421V39.232C61.7421 38.6987 61.6035 38.28 61.3261 37.976C61.0488 37.6667 60.6781 37.512 60.2141 37.512C59.8941 37.512 59.6115 37.5787 59.3661 37.712C59.1261 37.8453 58.9368 38.024 58.7981 38.248C58.6595 38.472 58.5901 38.72 58.5901 38.992V44H56.1341V39.184C56.1341 38.6773 55.9981 38.272 55.7261 37.968C55.4595 37.664 55.0888 37.512 54.6141 37.512C54.2995 37.512 54.0168 37.5787 53.7661 37.712C53.5208 37.8453 53.3288 38.0267 53.1901 38.256C53.0515 38.4853 52.9821 38.7387 52.9821 39.016V44H50.5261ZM77.5721 44.256C76.5748 44.256 75.6388 44.08 74.7641 43.728C73.8895 43.376 73.1188 42.888 72.4521 42.264C71.7855 41.6347 71.2655 40.9067 70.8921 40.08C70.5188 39.2533 70.3321 38.3653 70.3321 37.416C70.3321 36.4613 70.5188 35.5707 70.8921 34.744C71.2708 33.912 71.7908 33.184 72.4521 32.56C73.1188 31.9307 73.8868 31.44 74.7561 31.088C75.6308 30.736 76.5641 30.56 77.5561 30.56C78.3668 30.56 79.1375 30.6747 79.8681 30.904C80.6041 31.1333 81.2335 31.4347 81.7561 31.808L80.6361 34.008C80.2788 33.7253 79.8441 33.504 79.3321 33.344C78.8201 33.184 78.2841 33.104 77.7241 33.104C77.0681 33.104 76.4601 33.2133 75.9001 33.432C75.3455 33.6507 74.8601 33.9547 74.4441 34.344C74.0335 34.7333 73.7135 35.1893 73.4841 35.712C73.2548 36.2347 73.1401 36.8 73.1401 37.408C73.1401 38.016 73.2548 38.5813 73.4841 39.104C73.7135 39.6267 74.0335 40.0827 74.4441 40.472C74.8601 40.8613 75.3455 41.1653 75.9001 41.384C76.4601 41.6027 77.0681 41.712 77.7241 41.712C78.2841 41.712 78.8201 41.632 79.3321 41.472C79.8441 41.312 80.2788 41.0907 80.6361 40.808L81.7561 43.008C81.2548 43.3707 80.6388 43.6693 79.9081 43.904C79.1775 44.1387 78.3988 44.256 77.5721 44.256ZM87.5905 44.256C86.6892 44.256 85.8758 44.072 85.1505 43.704C84.4252 43.3307 83.8492 42.8187 83.4225 42.168C82.9958 41.512 82.7825 40.7573 82.7825 39.904C82.7825 39.0507 82.9932 38.2987 83.4145 37.648C83.8412 36.992 84.4172 36.48 85.1425 36.112C85.8732 35.7387 86.6892 35.552 87.5905 35.552C88.4972 35.552 89.3132 35.7387 90.0385 36.112C90.7638 36.48 91.3372 36.992 91.7585 37.648C92.1852 38.2987 92.3985 39.0507 92.3985 39.904C92.3985 40.7573 92.1852 41.512 91.7585 42.168C91.3372 42.8187 90.7638 43.3307 90.0385 43.704C89.3132 44.072 88.4972 44.256 87.5905 44.256ZM87.5985 42.16C88.0145 42.16 88.3932 42.064 88.7345 41.872C89.0758 41.68 89.3452 41.416 89.5425 41.08C89.7398 40.7387 89.8385 40.3467 89.8385 39.904C89.8385 39.4613 89.7398 39.072 89.5425 38.736C89.3452 38.3947 89.0758 38.128 88.7345 37.936C88.3932 37.744 88.0145 37.648 87.5985 37.648C87.1772 37.648 86.7958 37.744 86.4545 37.936C86.1185 38.128 85.8518 38.3947 85.6545 38.736C85.4572 39.072 85.3585 39.4613 85.3585 39.904C85.3585 40.3467 85.4572 40.7387 85.6545 41.08C85.8518 41.416 86.1185 41.68 86.4545 41.872C86.7958 42.064 87.1772 42.16 87.5985 42.16ZM98.589 44.256C97.0957 44.256 96.0183 43.96 95.357 43.368C94.6957 42.776 94.365 41.808 94.365 40.464V35.808H96.821V39.888C96.821 40.752 96.9543 41.3627 97.221 41.72C97.493 42.0773 97.949 42.256 98.589 42.256C99.2397 42.256 99.6957 42.0773 99.957 41.72C100.224 41.3627 100.357 40.752 100.357 39.888V35.808H102.813V40.464C102.813 41.808 102.482 42.776 101.821 43.368C101.165 43.96 100.088 44.256 98.589 44.256ZM109.343 44.256C108.719 44.256 108.129 44.144 107.575 43.92C107.025 43.696 106.54 43.3867 106.118 42.992C105.697 42.592 105.367 42.1307 105.127 41.608C104.887 41.08 104.767 40.5147 104.767 39.912C104.767 39.3307 104.879 38.7787 105.103 38.256C105.332 37.7333 105.652 37.2693 106.062 36.864C106.479 36.4587 106.964 36.1387 107.519 35.904C108.079 35.6693 108.684 35.552 109.335 35.552C109.863 35.552 110.369 35.6267 110.855 35.776C111.345 35.9253 111.74 36.1173 112.039 36.352L111.199 38.008C110.799 37.7147 110.303 37.568 109.711 37.568C109.204 37.568 108.775 37.68 108.423 37.904C108.071 38.128 107.801 38.4187 107.615 38.776C107.433 39.1333 107.343 39.5093 107.343 39.904C107.343 40.336 107.441 40.7307 107.639 41.088C107.836 41.44 108.113 41.72 108.47 41.928C108.833 42.136 109.252 42.24 109.727 42.24C110.02 42.24 110.295 42.2 110.551 42.12C110.807 42.04 111.023 41.9333 111.199 41.8L112.039 43.456C111.735 43.6853 111.343 43.8747 110.863 44.024C110.383 44.1787 109.876 44.256 109.343 44.256ZM114.026 44V30.24H116.482V36.72C116.797 36.368 117.189 36.0853 117.658 35.872C118.133 35.6587 118.655 35.552 119.226 35.552C119.855 35.552 120.407 35.6907 120.882 35.968C121.362 36.24 121.738 36.6213 122.01 37.112C122.282 37.5973 122.418 38.1653 122.418 38.816V44H119.962V39.336C119.962 38.7493 119.807 38.2933 119.498 37.968C119.194 37.6373 118.775 37.472 118.242 37.472C117.879 37.472 117.565 37.5467 117.298 37.696C117.037 37.84 116.834 38.04 116.69 38.296C116.551 38.5467 116.482 38.832 116.482 39.152V44H114.026ZM135.739 44.256C134.747 44.256 133.822 44.0827 132.963 43.736C132.11 43.384 131.36 42.8987 130.715 42.28C130.075 41.656 129.576 40.928 129.219 40.096C128.862 39.264 128.683 38.368 128.683 37.408C128.683 36.448 128.862 35.552 129.219 34.72C129.582 33.888 130.083 33.1627 130.723 32.544C131.363 31.92 132.11 31.4347 132.963 31.088C133.816 30.736 134.739 30.56 135.731 30.56C136.552 30.56 137.326 30.68 138.051 30.92C138.782 31.1547 139.419 31.4773 139.963 31.888L139.227 33.256C138.79 32.904 138.278 32.6347 137.691 32.448C137.104 32.256 136.486 32.16 135.835 32.16C135.051 32.16 134.331 32.2933 133.675 32.56C133.019 32.8267 132.448 33.2 131.963 33.68C131.483 34.1547 131.11 34.712 130.843 35.352C130.582 35.9867 130.451 36.672 130.451 37.408C130.451 38.144 130.582 38.832 130.843 39.472C131.11 40.1067 131.483 40.664 131.963 41.144C132.448 41.6187 133.019 41.9893 133.675 42.256C134.331 42.5227 135.051 42.656 135.835 42.656C136.486 42.656 137.104 42.5627 137.691 42.376C138.278 42.184 138.79 41.912 139.227 41.56L139.963 42.928C139.43 43.328 138.8 43.6507 138.075 43.896C137.35 44.136 136.571 44.256 135.739 44.256ZM146.163 44.256C145.293 44.256 144.509 44.072 143.811 43.704C143.117 43.336 142.565 42.824 142.155 42.168C141.749 41.512 141.547 40.7573 141.547 39.904C141.547 39.0453 141.749 38.2907 142.155 37.64C142.565 36.984 143.117 36.472 143.811 36.104C144.509 35.736 145.293 35.552 146.163 35.552C147.032 35.552 147.813 35.736 148.507 36.104C149.205 36.472 149.757 36.984 150.163 37.64C150.573 38.2907 150.779 39.0453 150.779 39.904C150.779 40.7573 150.573 41.512 150.163 42.168C149.757 42.824 149.205 43.336 148.507 43.704C147.813 44.072 147.032 44.256 146.163 44.256ZM146.171 42.904C146.741 42.904 147.253 42.776 147.707 42.52C148.16 42.264 148.517 41.9093 148.779 41.456C149.04 41.0027 149.171 40.4853 149.171 39.904C149.171 39.3173 149.04 38.8 148.779 38.352C148.517 37.8987 148.16 37.544 147.707 37.288C147.253 37.032 146.741 36.904 146.171 36.904C145.595 36.904 145.08 37.032 144.627 37.288C144.173 37.544 143.816 37.8987 143.555 38.352C143.293 38.8 143.163 39.3173 143.163 39.904C143.163 40.4853 143.293 41.0027 143.555 41.456C143.816 41.9093 144.173 42.264 144.627 42.52C145.08 42.776 145.595 42.904 146.171 42.904ZM153.374 44V35.808H154.926V36.864C155.273 36.4267 155.665 36.0987 156.102 35.88C156.54 35.6613 157.025 35.552 157.558 35.552C158.22 35.552 158.801 35.704 159.302 36.008C159.804 36.3067 160.153 36.7147 160.35 37.232C160.692 36.7093 161.102 36.2987 161.582 36C162.062 35.7013 162.625 35.552 163.27 35.552C163.857 35.552 164.377 35.672 164.83 35.912C165.284 36.152 165.641 36.4987 165.902 36.952C166.164 37.4053 166.294 37.9547 166.294 38.6V44H164.742V39.032C164.742 38.3493 164.564 37.808 164.206 37.408C163.849 37.008 163.374 36.808 162.782 36.808C162.372 36.808 162.001 36.8987 161.67 37.08C161.345 37.256 161.086 37.488 160.894 37.776C160.708 38.0587 160.614 38.3573 160.614 38.672V44H159.062V38.928C159.062 38.2827 158.886 37.768 158.534 37.384C158.182 37 157.713 36.808 157.126 36.808C156.716 36.808 156.342 36.896 156.006 37.072C155.676 37.2427 155.412 37.4667 155.214 37.744C155.022 38.0213 154.926 38.312 154.926 38.616V44H153.374ZM169.437 48.16V35.808H170.989V37.296C171.32 36.7467 171.765 36.32 172.325 36.016C172.89 35.7067 173.512 35.552 174.189 35.552C174.978 35.552 175.68 35.7413 176.293 36.12C176.912 36.4987 177.4 37.016 177.757 37.672C178.114 38.3227 178.293 39.0667 178.293 39.904C178.293 40.7307 178.114 41.4747 177.757 42.136C177.405 42.792 176.922 43.3093 176.309 43.688C175.696 44.0667 175 44.256 174.221 44.256C173.549 44.256 172.93 44.0987 172.365 43.784C171.8 43.4693 171.341 43.0293 170.989 42.464V48.16H169.437ZM173.813 42.92C174.368 42.92 174.861 42.792 175.293 42.536C175.725 42.2747 176.064 41.9173 176.309 41.464C176.554 41.0107 176.677 40.4933 176.677 39.912C176.677 39.3253 176.552 38.8053 176.301 38.352C176.056 37.8933 175.717 37.536 175.285 37.28C174.858 37.0187 174.368 36.888 173.813 36.888C173.258 36.888 172.762 37.0187 172.325 37.28C171.893 37.536 171.552 37.8907 171.301 38.344C171.056 38.7973 170.933 39.3173 170.933 39.904C170.933 40.4907 171.056 41.0107 171.301 41.464C171.552 41.9173 171.893 42.2747 172.325 42.536C172.762 42.792 173.258 42.92 173.813 42.92ZM184.44 44.256C183.677 44.256 182.987 44.0693 182.368 43.696C181.755 43.3173 181.267 42.8 180.904 42.144C180.547 41.488 180.368 40.7387 180.368 39.896C180.368 39.064 180.544 38.3227 180.896 37.672C181.248 37.016 181.731 36.4987 182.344 36.12C182.957 35.7413 183.656 35.552 184.44 35.552C185.133 35.552 185.765 35.7067 186.336 36.016C186.912 36.3253 187.357 36.7547 187.672 37.304V35.808H189.224V44H187.672V42.464C187.315 43.0293 186.856 43.4693 186.296 43.784C185.736 44.0987 185.117 44.256 184.44 44.256ZM184.856 42.92C185.416 42.92 185.909 42.792 186.336 42.536C186.768 42.2747 187.107 41.9173 187.352 41.464C187.597 41.0107 187.72 40.4907 187.72 39.904C187.72 39.3173 187.597 38.7973 187.352 38.344C187.107 37.8907 186.768 37.536 186.336 37.28C185.909 37.0187 185.416 36.888 184.856 36.888C184.301 36.888 183.808 37.0187 183.376 37.28C182.944 37.536 182.603 37.8907 182.352 38.344C182.107 38.7973 181.984 39.3173 181.984 39.904C181.984 40.4853 182.107 41.0053 182.352 41.464C182.603 41.9173 182.944 42.2747 183.376 42.536C183.808 42.792 184.301 42.92 184.856 42.92ZM192.499 44V35.808H194.051V36.864C194.302 36.4907 194.662 36.1787 195.131 35.928C195.601 35.6773 196.158 35.552 196.803 35.552C197.438 35.552 197.987 35.6853 198.451 35.952C198.915 36.2133 199.273 36.592 199.523 37.088C199.779 37.584 199.907 38.176 199.907 38.864V44H198.355V39.176C198.355 38.408 198.171 37.8187 197.803 37.408C197.435 36.9973 196.918 36.792 196.251 36.792C195.793 36.792 195.398 36.8853 195.067 37.072C194.742 37.2533 194.491 37.4987 194.315 37.808C194.139 38.112 194.051 38.4453 194.051 38.808V44H192.499ZM203.399 48.16L205.599 43.552L201.703 35.808H203.471L206.495 42.008L209.207 35.808H210.975L205.159 48.16H203.399Z" fill="#575757"/>
<defs>
<clipPath id="clip0_351_900">
<rect width="80" height="24" fill="white" transform="translate(66)"/>
</clipPath>
</defs>
</svg>
