<svg width="41" height="41" viewBox="0 0 41 41" fill="none" xmlns="http://www.w3.org/2000/svg">
<path d="M30.0865 0.0625H10.0796C4.56752 0.0625 0.0830078 4.52868 0.0830078 10.0182V30.1066C0.0830078 35.5958 4.56752 40.0625 10.0796 40.0625H30.0865C35.5986 40.0625 40.083 35.5958 40.083 30.1066V10.0182C40.083 4.52869 35.5986 0.0625 30.0865 0.0625ZM36.3807 30.1066C36.3807 33.5627 33.5573 36.375 30.0866 36.375H10.0796C6.60895 36.375 3.78548 33.5627 3.78548 30.1066V17.1322H11.6944C11.117 18.3526 10.7922 19.714 10.7922 21.1497C10.7922 26.3645 15.0518 30.6063 20.2877 30.6063C25.5235 30.6063 29.7832 26.3645 29.7832 21.1497C29.7832 19.714 29.4585 18.3526 28.881 17.1322H36.3807V30.1066H36.3807ZM16.3459 21.1498C16.3459 18.9855 18.1142 17.2243 20.2878 17.2243C22.4615 17.2243 24.2296 18.9855 24.2296 21.1498C24.2296 23.3146 22.4615 25.0755 20.2878 25.0755C18.1142 25.0754 16.3459 23.3146 16.3459 21.1498ZM36.3807 13.445H25.7828C24.2303 12.3438 22.3346 11.6933 20.2878 11.6933C18.2409 11.6933 16.3451 12.3438 14.7928 13.445H3.78548V10.0182C3.78548 6.56174 6.60895 3.74982 10.0796 3.74982H30.0866C33.5573 3.74982 36.3807 6.56174 36.3807 10.0182V13.445ZM32.3688 5.98612H28.9368C28.3257 5.98612 27.826 6.48393 27.826 7.0923V10.5104C27.826 11.1188 28.3257 11.6166 28.9368 11.6166H32.3688C32.9798 11.6166 33.4795 11.1188 33.4795 10.5104V7.0923C33.4795 6.48393 32.9798 5.98612 32.3688 5.98612Z" fill="black"/>
</svg>
