<svg width="40" height="40" viewBox="0 0 40 40" fill="none" xmlns="http://www.w3.org/2000/svg">
<path d="M19.9998 0.799805C9.39581 0.799805 0.799805 9.39581 0.799805 19.9998C0.799805 30.6038 9.39581 39.1998 19.9998 39.1998C30.6038 39.1998 39.1998 30.6038 39.1998 19.9998C39.1998 9.39581 30.6038 0.799805 19.9998 0.799805ZM21.3138 24.5498C20.0818 24.4558 19.5658 23.8458 18.6018 23.2618C18.0718 26.0438 17.4238 28.7118 15.5038 30.1058C14.9098 25.8978 16.3718 22.7418 17.0518 19.3878C15.8938 17.4378 17.1898 13.5158 19.6338 14.4798C22.6398 15.6718 17.0298 21.7298 20.7958 22.4878C24.7278 23.2758 26.3338 15.6638 23.8958 13.1918C20.3718 9.61781 13.6418 13.1098 14.4698 18.2258C14.6698 19.4758 15.9638 19.8558 14.9858 21.5818C12.7318 21.0818 12.0578 19.3038 12.1458 16.9338C12.2838 13.0538 15.6318 10.3358 18.9878 9.9618C23.2338 9.4898 27.2178 11.5198 27.7698 15.5158C28.3878 20.0238 25.8518 24.9018 21.3138 24.5498Z" fill="black"/>
</svg>
