<svg width="39" height="38" viewBox="0 0 39 38" fill="none" xmlns="http://www.w3.org/2000/svg">
<path d="M30.75 30.25C31.7446 30.25 32.6984 30.6451 33.4016 31.3484C34.1049 32.0516 34.5 33.0054 34.5 34C34.5 34.9946 34.1049 35.9484 33.4016 36.6516C32.6984 37.3549 31.7446 37.75 30.75 37.75C29.7554 37.75 28.8016 37.3549 28.0984 36.6516C27.3951 35.9484 27 34.9946 27 34C27 31.9188 28.6688 30.25 30.75 30.25ZM0.75 0.25H6.88125L8.64375 4H36.375C36.8723 4 37.3492 4.19754 37.7008 4.54918C38.0525 4.90081 38.25 5.37772 38.25 5.875C38.25 6.19375 38.1562 6.5125 38.025 6.8125L31.3125 18.9438C30.675 20.0875 29.4375 20.875 28.0312 20.875H14.0625L12.375 23.9312L12.3188 24.1562C12.3188 24.2806 12.3681 24.3998 12.456 24.4877C12.544 24.5756 12.6632 24.625 12.7875 24.625H34.5V28.375H12C11.0054 28.375 10.0516 27.9799 9.34835 27.2766C8.64509 26.5734 8.25 25.6196 8.25 24.625C8.25 23.9688 8.41875 23.35 8.7 22.825L11.25 18.2313L4.5 4H0.75V0.25ZM12 30.25C12.9946 30.25 13.9484 30.6451 14.6516 31.3484C15.3549 32.0516 15.75 33.0054 15.75 34C15.75 34.9946 15.3549 35.9484 14.6516 36.6516C13.9484 37.3549 12.9946 37.75 12 37.75C11.0054 37.75 10.0516 37.3549 9.34835 36.6516C8.64509 35.9484 8.25 34.9946 8.25 34C8.25 31.9188 9.91875 30.25 12 30.25ZM28.875 17.125L34.0875 7.75H10.3875L14.8125 17.125H28.875Z" fill="black"/>
</svg>
