<svg width="86" height="86" viewBox="0 0 86 86" fill="none" xmlns="http://www.w3.org/2000/svg">
<g clip-path="url(#clip0_369_356)">
<path d="M55.7743 48.2324L67.5206 57.5462C67.6625 57.6588 67.7694 57.8094 67.8287 57.9806C67.888 58.1517 67.8974 58.3361 67.8557 58.5124C67.8139 58.6886 67.7229 58.8493 67.5931 58.9757C67.4634 59.102 67.3003 59.1888 67.123 59.2258L55.6597 61.6191C55.523 61.6476 55.3816 61.6456 55.2457 61.6135C55.1098 61.5813 54.9826 61.5196 54.8732 61.4328C54.7638 61.346 54.6747 61.2363 54.6124 61.1113C54.5501 60.9863 54.516 60.8491 54.5125 60.7095L54.2296 49.0024C54.2252 48.8214 54.2725 48.6428 54.366 48.4877C54.4594 48.3325 54.5951 48.2072 54.7572 48.1265C54.9193 48.0457 55.101 48.0127 55.2812 48.0315C55.4613 48.0502 55.6324 48.1199 55.7743 48.2324ZM18.1759 28.1512L29.9222 37.465C30.0642 37.5775 30.2352 37.6472 30.4154 37.666C30.5955 37.6847 30.7772 37.6518 30.9393 37.571C31.1014 37.4902 31.2371 37.3649 31.3306 37.2097C31.424 37.0546 31.4713 36.8761 31.467 36.695L31.184 24.9879C31.1805 24.8483 31.1464 24.7111 31.0841 24.5861C31.0218 24.4612 30.9328 24.3514 30.8233 24.2646C30.7139 24.1778 30.5867 24.1162 30.4508 24.084C30.3149 24.0518 30.1736 24.0499 30.0368 24.0783L18.5735 26.4716C18.3962 26.5086 18.2332 26.5954 18.1034 26.7218C17.9737 26.8481 17.8826 27.0088 17.8409 27.185C17.7992 27.3613 17.8085 27.5458 17.8678 27.7169C17.9272 27.888 18.034 28.0386 18.1759 28.1512Z" fill="#344C95"/>
<path fill-rule="evenodd" clip-rule="evenodd" d="M54.6921 27.9119C50.0557 24.2356 44.2346 23.0599 38.8635 24.2068C38.6155 24.2683 38.3576 24.2794 38.1052 24.2393C37.8528 24.1991 37.6111 24.1087 37.3943 23.9733C37.1776 23.8379 36.9903 23.6603 36.8436 23.451C36.6969 23.2417 36.5937 23.0051 36.5403 22.7552C36.4868 22.5053 36.4842 22.2472 36.5325 21.9962C36.5808 21.7453 36.6791 21.5066 36.8215 21.2944C36.9639 21.0822 37.1476 20.9008 37.3615 20.761C37.5754 20.6211 37.8153 20.5258 38.0668 20.4805C42.3539 19.5666 46.8133 19.9034 50.9146 21.4507C55.0159 22.9979 58.5864 25.6907 61.2016 29.2085C63.8167 32.7264 65.3664 36.9214 65.6664 41.2946C65.9663 45.6678 65.0039 50.035 62.8935 53.877L59.8553 51.468C61.8403 47.5479 62.4107 43.0624 61.4699 38.7702C60.5291 34.478 58.1349 30.6424 54.6921 27.9119ZM25.8417 34.2293C24.2171 37.4399 23.534 41.0447 23.8712 44.6271C24.2085 48.2095 25.5524 51.6234 27.7477 54.4744C29.9431 57.3253 32.9002 59.4971 36.2774 60.7386C39.6547 61.9801 43.3143 62.2409 46.8335 61.4906C47.0816 61.4291 47.3394 61.418 47.5918 61.4581C47.8442 61.4982 48.086 61.5887 48.3027 61.7241C48.5195 61.8595 48.7068 62.0371 48.8535 62.2464C49.0002 62.4556 49.1033 62.6922 49.1568 62.9422C49.2102 63.1921 49.2129 63.4502 49.1645 63.7011C49.1162 63.9521 49.0179 64.1908 48.8755 64.403C48.7331 64.6152 48.5495 64.7966 48.3356 64.9364C48.1217 65.0762 47.8818 65.1716 47.6303 65.2169C43.3432 66.1307 38.8838 65.794 34.7825 64.2467C30.6812 62.6994 27.1107 60.0067 24.4955 56.4888C21.8803 52.9709 20.3306 48.7759 20.0307 44.4028C19.7308 40.0296 20.6932 35.6623 22.8036 31.8203L25.8417 34.2293Z" fill="#344C95"/>
</g>
<defs>
<clipPath id="clip0_369_356">
<rect width="61" height="61" fill="white" transform="translate(37.8994) rotate(38.4114)"/>
</clipPath>
</defs>
</svg>
