<svg width="51" height="51" viewBox="0 0 51 51" fill="none" xmlns="http://www.w3.org/2000/svg">
<path d="M14.4977 4.06376L3.34447 15.9294C3.16195 16.1269 3.02021 16.3585 2.92739 16.611C2.83457 16.8634 2.79248 17.1316 2.80355 17.4003C2.82476 17.936 3.05563 18.4419 3.44637 18.8089L33.3694 46.7852C33.7655 47.152 34.2906 47.3472 34.8302 47.3281C35.3697 47.309 35.8797 47.0772 36.2489 46.6833L47.3985 34.7155C47.5811 34.518 47.7228 34.2864 47.8156 34.034C47.9084 33.7815 47.9505 33.5133 47.9395 33.2446C47.9182 32.7089 47.6874 32.203 47.2966 31.836L41.3128 26.2612L23.3611 9.53669L17.3772 3.96185C16.9811 3.59504 16.456 3.39986 15.9165 3.41896C15.3769 3.43805 14.8669 3.66986 14.4977 4.06376ZM19.083 11.1398L17.6844 12.6411C17.3175 13.0372 17.1224 13.5623 17.1415 14.1019C17.1606 14.6414 17.3924 15.1514 17.7863 15.5206C17.9829 15.7053 18.2141 15.8492 18.4667 15.9441C18.7192 16.0389 18.988 16.0829 19.2576 16.0733C19.5272 16.0638 19.7922 16.001 20.0374 15.8885C20.2826 15.776 20.5031 15.6161 20.6862 15.4179L22.0848 13.9167L25.0669 16.7147L20.8907 21.1973C20.5699 21.5998 20.4129 22.1085 20.4509 22.6218C20.489 23.1351 20.7193 23.6151 21.0959 23.9659C21.4725 24.3167 21.9675 24.5125 22.4822 24.5142C22.9969 24.5159 23.4932 24.3233 23.8721 23.9749L28.0483 19.4922L31.0508 22.2895L29.6514 23.7703C29.2805 24.1685 29.0829 24.6977 29.1021 25.2415C29.1214 25.7854 29.3559 26.2993 29.754 26.6702C30.1522 27.0412 30.6814 27.2388 31.2252 27.2195C31.7691 27.2003 32.283 26.9658 32.6539 26.5676L34.0321 25.0671L37.0339 27.8439L32.8585 32.347C32.4916 32.7431 32.2965 33.2682 32.3156 33.8077C32.3346 34.3472 32.5665 34.8573 32.9604 35.2264C33.3564 35.5933 33.8816 35.7884 34.4211 35.7693C34.9606 35.7503 35.4707 35.5184 35.8398 35.1245L40.016 30.6419L43.0178 33.4188L34.6457 42.4052L7.72881 17.3283L16.1009 8.34186L19.083 11.1398Z" fill="#344C95"/>
</svg>
